<svg width="332" height="356" viewBox="0 0 332 356" fill="none" xmlns="http://www.w3.org/2000/svg">
<path d="M156.051 333.487C152.944 330.409 150.492 327.981 150.821 322.846C150.829 322.737 150.844 322.625 150.868 322.508C151.337 320.194 154.08 319.142 156.027 320.474C160.181 323.316 163.199 329.563 163.707 337.015C163.787 338.21 164.728 339.202 165.924 339.241C167.168 339.282 168.208 338.324 168.288 337.09C168.776 329.651 171.768 323.401 175.895 320.526C177.866 319.155 180.658 320.183 181.13 322.539C181.153 322.656 181.169 322.77 181.177 322.879C181.506 328.015 179.053 330.446 175.947 333.521L180.142 337.771C183.482 334.464 187.635 330.347 187.132 322.492C186.948 319.63 186.274 317.225 185.125 315.3C184.998 315.059 184.861 314.822 184.716 314.594C180.134 306.128 167.63 302.648 174.469 288.843H174.417C175.304 287.297 175.784 285.487 175.698 283.557C175.48 278.668 171.591 274.65 166.72 274.297C161.031 273.884 156.289 278.388 156.289 283.998C156.289 285.762 156.761 287.417 157.58 288.843H157.547C164.334 302.541 152.076 306.074 147.409 314.399C147.285 314.588 147.165 314.783 147.051 314.981C145.794 316.952 145.06 319.451 144.868 322.456C144.363 330.311 148.519 334.425 151.858 337.734L156.053 333.485L156.051 333.487ZM165.999 288.863C163.245 288.863 161.016 286.627 161.016 283.871C161.016 281.115 163.248 278.879 165.999 278.879C168.75 278.879 170.982 281.115 170.982 283.871C170.982 286.627 168.75 288.863 165.999 288.863Z" fill="black"/>
<path d="M148.84 255.219H148.96C149.144 254.979 149.376 254.799 149.656 254.679C149.936 254.559 150.224 254.499 150.52 254.499C151.024 254.499 151.48 254.635 151.888 254.907C152.296 255.179 152.62 255.559 152.86 256.047C153.1 256.535 153.22 257.099 153.22 257.739C153.22 258.379 153.092 258.955 152.836 259.467C152.588 259.971 152.24 260.371 151.792 260.667C151.344 260.955 150.82 261.099 150.22 261.099C149.62 261.099 149.08 260.931 148.6 260.595C148.12 260.259 147.74 259.731 147.46 259.011C147.18 258.283 147.04 257.339 147.04 256.179C147.04 255.099 147.18 254.195 147.46 253.467C147.74 252.731 148.12 252.179 148.6 251.811C149.08 251.443 149.62 251.259 150.22 251.259C150.668 251.259 151.06 251.347 151.396 251.523C151.732 251.691 152.016 251.915 152.248 252.195C152.48 252.467 152.66 252.763 152.788 253.083C152.924 253.403 153.008 253.715 153.04 254.019H151.24C151.184 253.715 151.06 253.499 150.868 253.371C150.676 253.243 150.46 253.179 150.22 253.179C149.804 253.179 149.484 253.371 149.26 253.755C149.044 254.131 148.904 254.619 148.84 255.219ZM150.22 259.179C150.644 259.179 150.968 259.043 151.192 258.771C151.424 258.499 151.54 258.155 151.54 257.739C151.54 257.315 151.424 256.971 151.192 256.707C150.968 256.435 150.644 256.299 150.22 256.299C149.804 256.299 149.48 256.435 149.248 256.707C149.016 256.971 148.9 257.315 148.9 257.739C148.9 258.155 149.016 258.499 149.248 258.771C149.48 259.043 149.804 259.179 150.22 259.179ZM154.235 256.179C154.235 255.155 154.359 254.275 154.607 253.539C154.855 252.803 155.215 252.239 155.687 251.847C156.159 251.455 156.735 251.259 157.415 251.259C158.095 251.259 158.671 251.455 159.143 251.847C159.615 252.239 159.975 252.803 160.223 253.539C160.471 254.275 160.595 255.155 160.595 256.179C160.595 257.203 160.471 258.083 160.223 258.819C159.975 259.555 159.615 260.119 159.143 260.511C158.671 260.903 158.095 261.099 157.415 261.099C156.735 261.099 156.159 260.903 155.687 260.511C155.215 260.119 154.855 259.555 154.607 258.819C154.359 258.083 154.235 257.203 154.235 256.179ZM155.975 256.179C155.975 257.099 156.095 257.819 156.335 258.339C156.575 258.859 156.935 259.119 157.415 259.119C157.895 259.119 158.255 258.859 158.495 258.339C158.735 257.819 158.855 257.099 158.855 256.179C158.855 255.259 158.735 254.539 158.495 254.019C158.255 253.499 157.895 253.239 157.415 253.239C156.935 253.239 156.575 253.499 156.335 254.019C156.095 254.539 155.975 255.259 155.975 256.179ZM164.737 255.219V257.139H161.857V255.219H164.737ZM167.501 260.979V254.739H165.881V253.179C167.081 253.179 167.681 252.579 167.681 251.379H169.301V260.979H167.501ZM171.04 256.179C171.04 255.155 171.164 254.275 171.412 253.539C171.66 252.803 172.02 252.239 172.492 251.847C172.964 251.455 173.54 251.259 174.22 251.259C174.9 251.259 175.476 251.455 175.948 251.847C176.42 252.239 176.78 252.803 177.028 253.539C177.276 254.275 177.4 255.155 177.4 256.179C177.4 257.203 177.276 258.083 177.028 258.819C176.78 259.555 176.42 260.119 175.948 260.511C175.476 260.903 174.9 261.099 174.22 261.099C173.54 261.099 172.964 260.903 172.492 260.511C172.02 260.119 171.66 259.555 171.412 258.819C171.164 258.083 171.04 257.203 171.04 256.179ZM172.78 256.179C172.78 257.099 172.9 257.819 173.14 258.339C173.38 258.859 173.74 259.119 174.22 259.119C174.7 259.119 175.06 258.859 175.3 258.339C175.54 257.819 175.66 257.099 175.66 256.179C175.66 255.259 175.54 254.539 175.3 254.019C175.06 253.499 174.7 253.239 174.22 253.239C173.74 253.239 173.38 253.499 173.14 254.019C172.9 254.539 172.78 255.259 172.78 256.179ZM178.481 256.179C178.481 255.155 178.605 254.275 178.853 253.539C179.101 252.803 179.461 252.239 179.933 251.847C180.405 251.455 180.981 251.259 181.661 251.259C182.341 251.259 182.917 251.455 183.389 251.847C183.861 252.239 184.221 252.803 184.469 253.539C184.717 254.275 184.841 255.155 184.841 256.179C184.841 257.203 184.717 258.083 184.469 258.819C184.221 259.555 183.861 260.119 183.389 260.511C182.917 260.903 182.341 261.099 181.661 261.099C180.981 261.099 180.405 260.903 179.933 260.511C179.461 260.119 179.101 259.555 178.853 258.819C178.605 258.083 178.481 257.203 178.481 256.179ZM180.221 256.179C180.221 257.099 180.341 257.819 180.581 258.339C180.821 258.859 181.181 259.119 181.661 259.119C182.141 259.119 182.501 258.859 182.741 258.339C182.981 257.819 183.101 257.099 183.101 256.179C183.101 255.259 182.981 254.539 182.741 254.019C182.501 253.499 182.141 253.239 181.661 253.239C181.181 253.239 180.821 253.499 180.581 254.019C180.341 254.539 180.221 255.259 180.221 256.179Z" fill="black"/>
</svg>
