<svg width="332" height="356" viewBox="0 0 332 356" fill="none" xmlns="http://www.w3.org/2000/svg">
<path d="M165.944 339.242C171.307 339.242 175.654 334.887 175.654 329.515C175.654 324.142 171.307 319.787 165.944 319.787C160.582 319.787 156.234 324.142 156.234 329.515C156.234 334.887 160.582 339.242 165.944 339.242Z" fill="black"/>
<path d="M175.576 273.653H170.966C173.777 271.95 175.657 268.859 175.657 265.326C175.657 259.955 171.309 255.599 165.947 255.599C160.585 255.599 156.237 259.955 156.237 265.326C156.237 268.859 158.117 271.95 160.927 273.653H156.424C148.814 273.653 142.643 279.835 142.643 287.459V287.817C142.643 290.269 145.428 291.677 147.398 290.223C148.563 289.36 149.773 288.924 150.995 288.924C154.168 288.924 156.439 291.791 157.51 293.503C159.631 296.888 160.8 301.451 160.8 306.348C160.8 308.386 160.595 310.389 160.188 312.296L159.418 315.909H172.582L171.812 312.296C171.405 310.389 171.2 308.389 171.2 306.348C171.2 301.451 172.369 296.888 174.49 293.503C175.561 291.794 177.832 288.924 181.005 288.924C182.227 288.924 183.437 289.36 184.602 290.223C186.572 291.68 189.357 290.269 189.357 287.817V287.459C189.357 279.835 183.186 273.653 175.576 273.653ZM181.005 282.947C173.901 282.947 168.031 289.581 165.999 298.994C163.966 289.581 158.099 282.947 150.992 282.947C150.663 282.947 150.336 282.963 150.007 282.991C151.42 280.963 153.766 279.63 156.419 279.63H175.574C178.226 279.63 180.572 280.96 181.985 282.991C181.659 282.963 181.329 282.947 181 282.947H181.005Z" fill="black"/>
<path d="M146.023 242.327V236.087H144.403V234.527C145.603 234.527 146.203 233.927 146.203 232.727H147.823V242.327H146.023ZM149.562 237.527C149.562 236.503 149.686 235.623 149.934 234.887C150.182 234.151 150.542 233.587 151.014 233.195C151.486 232.803 152.062 232.607 152.742 232.607C153.422 232.607 153.998 232.803 154.47 233.195C154.942 233.587 155.302 234.151 155.55 234.887C155.798 235.623 155.922 236.503 155.922 237.527C155.922 238.551 155.798 239.431 155.55 240.167C155.302 240.903 154.942 241.467 154.47 241.859C153.998 242.251 153.422 242.447 152.742 242.447C152.062 242.447 151.486 242.251 151.014 241.859C150.542 241.467 150.182 240.903 149.934 240.167C149.686 239.431 149.562 238.551 149.562 237.527ZM151.302 237.527C151.302 238.447 151.422 239.167 151.662 239.687C151.902 240.207 152.262 240.467 152.742 240.467C153.222 240.467 153.582 240.207 153.822 239.687C154.062 239.167 154.182 238.447 154.182 237.527C154.182 236.607 154.062 235.887 153.822 235.367C153.582 234.847 153.222 234.587 152.742 234.587C152.262 234.587 151.902 234.847 151.662 235.367C151.422 235.887 151.302 236.607 151.302 237.527ZM157.004 237.527C157.004 236.503 157.128 235.623 157.376 234.887C157.624 234.151 157.984 233.587 158.456 233.195C158.928 232.803 159.504 232.607 160.184 232.607C160.864 232.607 161.44 232.803 161.912 233.195C162.384 233.587 162.744 234.151 162.992 234.887C163.24 235.623 163.364 236.503 163.364 237.527C163.364 238.551 163.24 239.431 162.992 240.167C162.744 240.903 162.384 241.467 161.912 241.859C161.44 242.251 160.864 242.447 160.184 242.447C159.504 242.447 158.928 242.251 158.456 241.859C157.984 241.467 157.624 240.903 157.376 240.167C157.128 239.431 157.004 238.551 157.004 237.527ZM158.744 237.527C158.744 238.447 158.864 239.167 159.104 239.687C159.344 240.207 159.704 240.467 160.184 240.467C160.664 240.467 161.024 240.207 161.264 239.687C161.504 239.167 161.624 238.447 161.624 237.527C161.624 236.607 161.504 235.887 161.264 235.367C161.024 234.847 160.664 234.587 160.184 234.587C159.704 234.587 159.344 234.847 159.104 235.367C158.864 235.887 158.744 236.607 158.744 237.527ZM167.505 236.567V238.487H164.625V236.567H167.505ZM170.269 242.327V236.087H168.649V234.527C169.849 234.527 170.449 233.927 170.449 232.727H172.069V242.327H170.269ZM173.628 240.527V238.367L176.388 232.727H178.788V238.607H180.108V240.527H178.788V242.327H177.108V240.527H173.628ZM175.236 238.607H177.108V235.007H177L175.236 238.607ZM181.004 237.527C181.004 236.503 181.128 235.623 181.376 234.887C181.624 234.151 181.984 233.587 182.456 233.195C182.928 232.803 183.504 232.607 184.184 232.607C184.864 232.607 185.44 232.803 185.912 233.195C186.384 233.587 186.744 234.151 186.992 234.887C187.24 235.623 187.364 236.503 187.364 237.527C187.364 238.551 187.24 239.431 186.992 240.167C186.744 240.903 186.384 241.467 185.912 241.859C185.44 242.251 184.864 242.447 184.184 242.447C183.504 242.447 182.928 242.251 182.456 241.859C181.984 241.467 181.624 240.903 181.376 240.167C181.128 239.431 181.004 238.551 181.004 237.527ZM182.744 237.527C182.744 238.447 182.864 239.167 183.104 239.687C183.344 240.207 183.704 240.467 184.184 240.467C184.664 240.467 185.024 240.207 185.264 239.687C185.504 239.167 185.624 238.447 185.624 237.527C185.624 236.607 185.504 235.887 185.264 235.367C185.024 234.847 184.664 234.587 184.184 234.587C183.704 234.587 183.344 234.847 183.104 235.367C182.864 235.887 182.744 236.607 182.744 237.527Z" fill="black"/>
</svg>
