<svg width="332" height="356" viewBox="0 0 332 356" fill="none" xmlns="http://www.w3.org/2000/svg">
<path d="M175.579 243.556H170.969C173.779 241.852 175.659 238.761 175.659 235.228C175.659 229.857 171.311 225.501 165.949 225.501C160.588 225.501 156.24 229.857 156.24 235.228C156.24 238.761 158.119 241.852 160.93 243.556H156.426C148.817 243.556 142.646 249.738 142.646 257.361V257.72C142.646 260.172 145.431 261.579 147.401 260.125C148.565 259.263 149.776 258.826 150.997 258.826C154.171 258.826 156.442 261.694 157.513 263.405C159.634 266.79 160.803 271.354 160.803 276.25C160.803 277.224 160.754 278.19 160.66 279.138C158.358 280.253 156.546 282.063 155.578 284.255C154.609 286.133 154.093 288.421 154.041 291.107C153.945 296.138 155.304 299.442 156.618 302.64C158.052 306.126 159.532 309.728 159.646 316.528C159.799 325.684 155.28 331.64 153.611 333.523H145.371V339.5H154.837C156.141 339.5 156.914 338.716 157.476 338.142C158.871 336.721 165.825 328.988 165.612 316.427C165.48 308.495 163.624 303.985 162.133 300.362C161.604 299.076 161.124 297.905 160.751 296.687C162.317 297.427 164.103 297.848 165.999 297.848C167.894 297.848 169.711 297.422 171.285 296.668C170.914 297.892 170.43 299.068 169.898 300.359C168.407 303.983 166.554 308.492 166.419 316.425C166.209 328.986 173.16 336.718 174.557 338.139C175.12 338.713 175.89 339.498 177.197 339.498H186.663V333.521H178.423C176.751 331.638 172.234 325.682 172.387 316.526C172.501 309.726 173.984 306.12 175.415 302.637C176.73 299.44 178.089 296.136 177.993 291.105C177.936 288.185 177.332 285.736 176.193 283.775C175.185 281.801 173.471 280.175 171.34 279.143C171.246 278.193 171.197 277.226 171.197 276.25C171.197 271.354 172.366 266.79 174.487 263.405C175.558 261.696 177.829 258.826 181.003 258.826C182.224 258.826 183.435 259.263 184.599 260.125C186.569 261.582 189.354 260.172 189.354 257.72V257.361C189.354 249.738 183.183 243.556 175.574 243.556H175.579ZM181.008 252.849C173.904 252.849 168.034 259.483 166.001 268.896C163.969 259.483 158.101 252.849 150.995 252.849C150.665 252.849 150.339 252.865 150.009 252.894C151.422 250.865 153.769 249.533 156.421 249.533H175.576C178.229 249.533 180.575 250.862 181.988 252.894C181.661 252.865 181.332 252.849 181.003 252.849H181.008Z" fill="black"/>
<path d="M146.269 212.775V206.535H144.649V204.975C145.849 204.975 146.449 204.375 146.449 203.175H148.069V212.775H146.269ZM152.928 212.895C152.304 212.895 151.764 212.771 151.308 212.523C150.852 212.267 150.496 211.907 150.24 211.443C149.992 210.971 149.868 210.415 149.868 209.775H151.668C151.668 210.191 151.788 210.495 152.028 210.687C152.268 210.879 152.568 210.975 152.928 210.975C153.288 210.975 153.588 210.871 153.828 210.663C154.068 210.447 154.188 210.071 154.188 209.535C154.188 208.991 154.068 208.615 153.828 208.407C153.588 208.199 153.288 208.095 152.928 208.095C152.688 208.095 152.464 208.143 152.256 208.239C152.056 208.327 151.9 208.479 151.788 208.695H149.988L150.708 203.175H155.688V205.095H152.268L152.028 206.655H152.148C152.3 206.503 152.48 206.387 152.688 206.307C152.896 206.219 153.136 206.175 153.408 206.175C153.912 206.175 154.356 206.307 154.74 206.571C155.132 206.827 155.436 207.207 155.652 207.711C155.876 208.207 155.988 208.815 155.988 209.535C155.988 210.615 155.712 211.447 155.16 212.031C154.608 212.607 153.864 212.895 152.928 212.895ZM160.124 212.895C159.5 212.895 158.96 212.771 158.504 212.523C158.048 212.267 157.692 211.907 157.436 211.443C157.188 210.971 157.064 210.415 157.064 209.775H158.864C158.864 210.191 158.984 210.495 159.224 210.687C159.464 210.879 159.764 210.975 160.124 210.975C160.484 210.975 160.784 210.871 161.024 210.663C161.264 210.447 161.384 210.071 161.384 209.535C161.384 208.991 161.264 208.615 161.024 208.407C160.784 208.199 160.484 208.095 160.124 208.095C159.884 208.095 159.66 208.143 159.452 208.239C159.252 208.327 159.096 208.479 158.984 208.695H157.184L157.904 203.175H162.884V205.095H159.464L159.224 206.655H159.344C159.496 206.503 159.676 206.387 159.884 206.307C160.092 206.219 160.332 206.175 160.604 206.175C161.108 206.175 161.552 206.307 161.936 206.571C162.328 206.827 162.632 207.207 162.848 207.711C163.072 208.207 163.184 208.815 163.184 209.535C163.184 210.615 162.908 211.447 162.356 212.031C161.804 212.607 161.06 212.895 160.124 212.895ZM167.259 207.015V208.935H164.379V207.015H167.259ZM170.023 212.775V206.535H168.403V204.975C169.603 204.975 170.203 204.375 170.203 203.175H171.823V212.775H170.023ZM179.682 210.015C179.682 210.575 179.558 211.071 179.31 211.503C179.062 211.935 178.706 212.275 178.242 212.523C177.786 212.771 177.246 212.895 176.622 212.895C175.998 212.895 175.458 212.771 175.002 212.523C174.546 212.275 174.19 211.935 173.934 211.503C173.686 211.071 173.562 210.575 173.562 210.015C173.562 209.551 173.654 209.131 173.838 208.755C174.03 208.379 174.294 208.071 174.63 207.831C174.35 207.599 174.13 207.315 173.97 206.979C173.818 206.635 173.742 206.247 173.742 205.815C173.742 205.255 173.862 204.771 174.102 204.363C174.342 203.947 174.678 203.627 175.11 203.403C175.542 203.171 176.046 203.055 176.622 203.055C177.198 203.055 177.702 203.171 178.134 203.403C178.566 203.627 178.902 203.947 179.142 204.363C179.382 204.771 179.502 205.255 179.502 205.815C179.502 206.247 179.422 206.635 179.262 206.979C179.11 207.315 178.894 207.599 178.614 207.831C178.95 208.071 179.21 208.379 179.394 208.755C179.586 209.131 179.682 209.551 179.682 210.015ZM176.622 204.855C176.294 204.855 176.01 204.947 175.77 205.131C175.538 205.307 175.422 205.575 175.422 205.935C175.422 206.295 175.538 206.567 175.77 206.751C176.01 206.927 176.294 207.015 176.622 207.015C176.95 207.015 177.23 206.927 177.462 206.751C177.702 206.567 177.822 206.295 177.822 205.935C177.822 205.575 177.702 205.307 177.462 205.131C177.23 204.947 176.95 204.855 176.622 204.855ZM176.622 208.695C176.206 208.695 175.882 208.807 175.65 209.031C175.418 209.247 175.302 209.535 175.302 209.895C175.302 210.255 175.418 210.547 175.65 210.771C175.882 210.987 176.206 211.095 176.622 211.095C177.046 211.095 177.37 210.987 177.594 210.771C177.826 210.547 177.942 210.255 177.942 209.895C177.942 209.535 177.826 209.247 177.594 209.031C177.37 208.807 177.046 208.695 176.622 208.695ZM180.758 207.975C180.758 206.951 180.882 206.071 181.13 205.335C181.378 204.599 181.738 204.035 182.21 203.643C182.682 203.251 183.258 203.055 183.938 203.055C184.618 203.055 185.194 203.251 185.666 203.643C186.138 204.035 186.498 204.599 186.746 205.335C186.994 206.071 187.118 206.951 187.118 207.975C187.118 208.999 186.994 209.879 186.746 210.615C186.498 211.351 186.138 211.915 185.666 212.307C185.194 212.699 184.618 212.895 183.938 212.895C183.258 212.895 182.682 212.699 182.21 212.307C181.738 211.915 181.378 211.351 181.13 210.615C180.882 209.879 180.758 208.999 180.758 207.975ZM182.498 207.975C182.498 208.895 182.618 209.615 182.858 210.135C183.098 210.655 183.458 210.915 183.938 210.915C184.418 210.915 184.778 210.655 185.018 210.135C185.258 209.615 185.378 208.895 185.378 207.975C185.378 207.055 185.258 206.335 185.018 205.815C184.778 205.295 184.418 205.035 183.938 205.035C183.458 205.035 183.098 205.295 182.858 205.815C182.618 206.335 182.498 207.055 182.498 207.975Z" fill="black"/>
</svg>
