<svg width="332" height="356" viewBox="0 0 332 356" fill="none" xmlns="http://www.w3.org/2000/svg">
<path d="M165.999 339.5C174.121 339.5 180.705 332.904 180.705 324.767C180.705 316.63 174.121 310.034 165.999 310.034C157.877 310.034 151.293 316.63 151.293 324.767C151.293 332.904 157.877 339.5 165.999 339.5Z" fill="black"/>
<path d="M180.062 284.725C179.538 277.982 182.844 274.707 187.42 270.174C192.476 265.166 198.771 258.933 198.006 247.036C197.729 242.698 196.707 239.059 194.967 236.143C194.773 235.776 194.568 235.42 194.348 235.072C187.407 222.254 168.467 216.979 178.828 196.069H178.75C180.095 193.729 180.819 190.986 180.689 188.064C180.36 180.659 174.472 174.573 167.09 174.038C158.475 173.414 151.29 180.233 151.29 188.731C151.29 191.404 152.003 193.908 153.245 196.069H153.193C163.473 216.818 144.904 222.171 137.836 234.776C137.647 235.065 137.468 235.358 137.297 235.659C135.394 238.646 134.282 242.431 133.989 246.984C133.224 258.881 139.519 265.114 144.575 270.122C149.151 274.655 152.457 277.928 151.933 284.673C151.228 293.751 134.03 299.063 133.701 299.157L136.213 307.853C136.377 307.806 144.979 305.666 149.978 302.554C156.6 298.432 160.393 292.492 160.945 285.372C161.793 274.442 155.77 268.476 150.932 263.683C146.227 259.023 142.511 255.343 143.012 247.564C143.022 247.4 143.045 247.228 143.082 247.054C143.792 243.548 147.946 241.956 150.896 243.974C157.186 248.275 161.76 257.74 162.527 269.026C162.649 270.837 164.075 272.341 165.885 272.398C167.77 272.46 169.343 271.011 169.465 269.138C170.204 257.87 174.736 248.405 180.987 244.052C183.969 241.974 188.2 243.532 188.918 247.101C188.955 247.278 188.978 247.452 188.988 247.618C189.489 255.397 185.771 259.078 181.068 263.738C176.23 268.53 170.207 274.496 171.055 285.426C171.607 292.546 175.397 298.486 182.022 302.609C187.021 305.72 195.623 307.861 195.787 307.907L198.299 299.211C197.97 299.115 180.77 293.806 180.067 284.728L180.062 284.725ZM165.999 196.093C161.83 196.093 158.451 192.708 158.451 188.531C158.451 184.355 161.83 180.97 165.999 180.97C170.168 180.97 173.546 184.355 173.546 188.531C173.546 192.708 170.168 196.093 165.999 196.093Z" fill="black"/>
<path d="M142.544 160.024C142.544 159.392 142.616 158.852 142.76 158.404C142.912 157.948 143.112 157.564 143.36 157.252C143.608 156.932 143.88 156.66 144.176 156.436C144.472 156.212 144.764 156.016 145.052 155.848C145.348 155.672 145.62 155.5 145.868 155.332C146.116 155.164 146.312 154.976 146.456 154.768C146.608 154.56 146.684 154.312 146.684 154.024C146.684 153.664 146.584 153.384 146.384 153.184C146.184 152.984 145.904 152.884 145.544 152.884C145.184 152.884 144.892 153.016 144.668 153.28C144.452 153.536 144.344 153.904 144.344 154.384H142.544C142.544 153.664 142.668 153.044 142.916 152.524C143.172 152.004 143.524 151.604 143.972 151.324C144.42 151.044 144.944 150.904 145.544 150.904C146.144 150.904 146.664 151.04 147.104 151.312C147.544 151.584 147.884 151.956 148.124 152.428C148.364 152.892 148.484 153.424 148.484 154.024C148.484 154.504 148.396 154.916 148.22 155.26C148.052 155.596 147.828 155.888 147.548 156.136C147.276 156.384 146.98 156.608 146.66 156.808C146.348 157 146.044 157.188 145.748 157.372C145.452 157.556 145.2 157.756 144.992 157.972C144.784 158.18 144.656 158.424 144.608 158.704H148.544V160.624H142.544V160.024ZM149.68 155.824C149.68 154.8 149.804 153.92 150.052 153.184C150.3 152.448 150.66 151.884 151.132 151.492C151.604 151.1 152.18 150.904 152.86 150.904C153.54 150.904 154.116 151.1 154.588 151.492C155.06 151.884 155.42 152.448 155.668 153.184C155.916 153.92 156.04 154.8 156.04 155.824C156.04 156.848 155.916 157.728 155.668 158.464C155.42 159.2 155.06 159.764 154.588 160.156C154.116 160.548 153.54 160.744 152.86 160.744C152.18 160.744 151.604 160.548 151.132 160.156C150.66 159.764 150.3 159.2 150.052 158.464C149.804 157.728 149.68 156.848 149.68 155.824ZM151.42 155.824C151.42 156.744 151.54 157.464 151.78 157.984C152.02 158.504 152.38 158.764 152.86 158.764C153.34 158.764 153.7 158.504 153.94 157.984C154.18 157.464 154.3 156.744 154.3 155.824C154.3 154.904 154.18 154.184 153.94 153.664C153.7 153.144 153.34 152.884 152.86 152.884C152.38 152.884 152.02 153.144 151.78 153.664C151.54 154.184 151.42 154.904 151.42 155.824ZM157.121 155.824C157.121 154.8 157.245 153.92 157.493 153.184C157.741 152.448 158.101 151.884 158.573 151.492C159.045 151.1 159.621 150.904 160.301 150.904C160.981 150.904 161.557 151.1 162.029 151.492C162.501 151.884 162.861 152.448 163.109 153.184C163.357 153.92 163.481 154.8 163.481 155.824C163.481 156.848 163.357 157.728 163.109 158.464C162.861 159.2 162.501 159.764 162.029 160.156C161.557 160.548 160.981 160.744 160.301 160.744C159.621 160.744 159.045 160.548 158.573 160.156C158.101 159.764 157.741 159.2 157.493 158.464C157.245 157.728 157.121 156.848 157.121 155.824ZM158.861 155.824C158.861 156.744 158.981 157.464 159.221 157.984C159.461 158.504 159.821 158.764 160.301 158.764C160.781 158.764 161.141 158.504 161.381 157.984C161.621 157.464 161.741 156.744 161.741 155.824C161.741 154.904 161.621 154.184 161.381 153.664C161.141 153.144 160.781 152.884 160.301 152.884C159.821 152.884 159.461 153.144 159.221 153.664C158.981 154.184 158.861 154.904 158.861 155.824ZM167.622 154.864V156.784H164.742V154.864H167.622ZM168.712 160.024C168.712 159.392 168.784 158.852 168.928 158.404C169.08 157.948 169.28 157.564 169.528 157.252C169.776 156.932 170.048 156.66 170.344 156.436C170.64 156.212 170.932 156.016 171.22 155.848C171.516 155.672 171.788 155.5 172.036 155.332C172.284 155.164 172.48 154.976 172.624 154.768C172.776 154.56 172.852 154.312 172.852 154.024C172.852 153.664 172.752 153.384 172.552 153.184C172.352 152.984 172.072 152.884 171.712 152.884C171.352 152.884 171.06 153.016 170.836 153.28C170.62 153.536 170.512 153.904 170.512 154.384H168.712C168.712 153.664 168.836 153.044 169.084 152.524C169.34 152.004 169.692 151.604 170.14 151.324C170.588 151.044 171.112 150.904 171.712 150.904C172.312 150.904 172.832 151.04 173.272 151.312C173.712 151.584 174.052 151.956 174.292 152.428C174.532 152.892 174.652 153.424 174.652 154.024C174.652 154.504 174.564 154.916 174.388 155.26C174.22 155.596 173.996 155.888 173.716 156.136C173.444 156.384 173.148 156.608 172.828 156.808C172.516 157 172.212 157.188 171.916 157.372C171.62 157.556 171.368 157.756 171.16 157.972C170.952 158.18 170.824 158.424 170.776 158.704H174.712V160.624H168.712V160.024ZM181.967 157.864C181.967 158.424 181.843 158.92 181.595 159.352C181.347 159.784 180.991 160.124 180.527 160.372C180.071 160.62 179.531 160.744 178.907 160.744C178.283 160.744 177.743 160.62 177.287 160.372C176.831 160.124 176.475 159.784 176.219 159.352C175.971 158.92 175.847 158.424 175.847 157.864C175.847 157.4 175.939 156.98 176.123 156.604C176.315 156.228 176.579 155.92 176.915 155.68C176.635 155.448 176.415 155.164 176.255 154.828C176.103 154.484 176.027 154.096 176.027 153.664C176.027 153.104 176.147 152.62 176.387 152.212C176.627 151.796 176.963 151.476 177.395 151.252C177.827 151.02 178.331 150.904 178.907 150.904C179.483 150.904 179.987 151.02 180.419 151.252C180.851 151.476 181.187 151.796 181.427 152.212C181.667 152.62 181.787 153.104 181.787 153.664C181.787 154.096 181.707 154.484 181.547 154.828C181.395 155.164 181.179 155.448 180.899 155.68C181.235 155.92 181.495 156.228 181.679 156.604C181.871 156.98 181.967 157.4 181.967 157.864ZM178.907 152.704C178.579 152.704 178.295 152.796 178.055 152.98C177.823 153.156 177.707 153.424 177.707 153.784C177.707 154.144 177.823 154.416 178.055 154.6C178.295 154.776 178.579 154.864 178.907 154.864C179.235 154.864 179.515 154.776 179.747 154.6C179.987 154.416 180.107 154.144 180.107 153.784C180.107 153.424 179.987 153.156 179.747 152.98C179.515 152.796 179.235 152.704 178.907 152.704ZM178.907 156.544C178.491 156.544 178.167 156.656 177.935 156.88C177.703 157.096 177.587 157.384 177.587 157.744C177.587 158.104 177.703 158.396 177.935 158.62C178.167 158.836 178.491 158.944 178.907 158.944C179.331 158.944 179.655 158.836 179.879 158.62C180.111 158.396 180.227 158.104 180.227 157.744C180.227 157.384 180.111 157.096 179.879 156.88C179.655 156.656 179.331 156.544 178.907 156.544ZM183.043 155.824C183.043 154.8 183.167 153.92 183.415 153.184C183.663 152.448 184.023 151.884 184.495 151.492C184.967 151.1 185.543 150.904 186.223 150.904C186.903 150.904 187.479 151.1 187.951 151.492C188.423 151.884 188.783 152.448 189.031 153.184C189.279 153.92 189.403 154.8 189.403 155.824C189.403 156.848 189.279 157.728 189.031 158.464C188.783 159.2 188.423 159.764 187.951 160.156C187.479 160.548 186.903 160.744 186.223 160.744C185.543 160.744 184.967 160.548 184.495 160.156C184.023 159.764 183.663 159.2 183.415 158.464C183.167 157.728 183.043 156.848 183.043 155.824ZM184.783 155.824C184.783 156.744 184.903 157.464 185.143 157.984C185.383 158.504 185.743 158.764 186.223 158.764C186.703 158.764 187.063 158.504 187.303 157.984C187.543 157.464 187.663 156.744 187.663 155.824C187.663 154.904 187.543 154.184 187.303 153.664C187.063 153.144 186.703 152.884 186.223 152.884C185.743 152.884 185.383 153.144 185.143 153.664C184.903 154.184 184.783 154.904 184.783 155.824Z" fill="black"/>
</svg>
