<svg width="332" height="356" viewBox="0 0 332 356" fill="none" xmlns="http://www.w3.org/2000/svg">
<path d="M206.326 137.22L202.93 139.732C200.617 141.441 198.216 142.309 195.789 142.309C189.489 142.309 184.98 136.615 182.854 133.22C178.644 126.501 176.326 117.443 176.326 107.721C176.326 103.672 176.735 99.7002 177.539 95.9157L179.066 88.7441H152.934L154.461 95.9157C155.267 99.6976 155.675 103.672 155.675 107.721C155.675 117.443 153.357 126.498 149.146 133.22C147.02 136.615 142.511 142.309 136.211 142.309C133.784 142.309 131.383 141.441 129.07 139.732L125.674 137.22C123.172 135.371 119.633 137.16 119.633 140.275V145.218C119.633 160.353 131.881 172.623 146.989 172.623H185.016C200.124 172.623 212.372 160.353 212.372 145.218V140.277C212.372 137.161 208.833 135.371 206.331 137.223L206.326 137.22ZM196.476 155.672C193.637 158.795 189.549 160.756 185.011 160.756H146.984C142.446 160.756 138.358 158.795 135.519 155.672C134.992 155.093 135.405 154.174 136.188 154.174H136.208C147.684 154.174 157.533 145.457 162.981 132.142C164.093 129.42 167.902 129.42 169.017 132.142C174.464 145.457 184.314 154.174 195.789 154.174H195.81C196.593 154.174 197.005 155.093 196.479 155.672H196.476Z" fill="black"/>
<path d="M185.011 175.891H146.984C131.876 175.891 119.628 188.161 119.628 203.297V208.237C119.628 211.354 123.167 213.143 125.669 211.292L129.065 208.78C131.378 207.071 133.779 206.203 136.206 206.203C142.506 206.203 147.015 211.897 149.141 215.292C153.32 221.962 155.633 230.936 155.667 240.578C155.633 250.219 153.32 259.194 149.141 265.864C147.015 269.259 142.506 274.952 136.206 274.952C133.779 274.952 131.378 274.085 129.065 272.376L125.669 269.864C123.167 268.014 119.628 269.804 119.628 272.918V277.859C119.628 292.994 131.876 305.264 146.984 305.264H149.527C146.719 308.839 145.036 313.342 145.036 318.244C145.036 329.841 154.422 339.242 165.996 339.242C177.57 339.242 186.956 329.839 186.956 318.244C186.956 313.342 185.276 308.839 182.465 305.264H185.009C200.116 305.264 212.365 292.994 212.365 277.859V272.916C212.365 269.799 208.825 268.009 206.323 269.861L202.927 272.373C200.614 274.082 198.213 274.95 195.787 274.95C189.486 274.95 184.978 269.256 182.851 265.861C178.672 259.188 176.359 250.217 176.326 240.575C176.359 230.933 178.672 221.959 182.851 215.289C184.978 211.894 189.486 206.201 195.787 206.201C198.213 206.201 200.614 207.068 202.927 208.777L206.323 211.289C208.825 213.138 212.365 211.349 212.365 208.234V203.291C212.365 188.156 200.116 175.886 185.009 175.886L185.011 175.891ZM195.789 286.823H195.81C196.593 286.823 197.005 287.742 196.479 288.321C193.64 291.443 189.551 293.405 185.014 293.405H146.986C142.449 293.405 138.36 291.443 135.521 288.321C134.995 287.742 135.407 286.823 136.19 286.823H136.211C147.686 286.823 157.536 278.106 162.983 264.791C164.096 262.069 167.904 262.069 169.019 264.791C174.467 278.106 184.316 286.823 195.792 286.823H195.789ZM195.807 194.341H195.787C184.311 194.341 174.461 203.058 169.014 216.372C167.902 219.094 164.093 219.094 162.978 216.372C157.531 203.058 147.681 194.341 136.206 194.341H136.185C135.402 194.341 134.99 193.421 135.516 192.842C138.355 189.72 142.444 187.759 146.981 187.759H185.009C189.546 187.759 193.635 189.72 196.474 192.842C197 193.421 196.588 194.341 195.805 194.341H195.807Z" fill="black"/>
<path d="M144.35 68.7536H142.61C142.61 67.7936 142.874 67.0536 143.402 66.5336C143.93 66.0136 144.626 65.7536 145.49 65.7536C146.066 65.7536 146.57 65.8696 147.002 66.1016C147.434 66.3256 147.77 66.6456 148.01 67.0616C148.25 67.4696 148.37 67.9536 148.37 68.5136C148.37 68.9456 148.29 69.3336 148.13 69.6776C147.978 70.0136 147.762 70.2976 147.482 70.5296C147.818 70.7696 148.078 71.0776 148.262 71.4536C148.454 71.8296 148.55 72.2496 148.55 72.7136C148.55 73.2736 148.426 73.7696 148.178 74.2016C147.93 74.6336 147.574 74.9736 147.11 75.2216C146.654 75.4696 146.114 75.5936 145.49 75.5936C144.866 75.5936 144.326 75.4696 143.87 75.2216C143.414 74.9656 143.058 74.6056 142.802 74.1416C142.554 73.6696 142.43 73.1136 142.43 72.4736H144.23C144.23 72.8576 144.338 73.1536 144.554 73.3616C144.778 73.5696 145.09 73.6736 145.49 73.6736C145.89 73.6736 146.198 73.5736 146.414 73.3736C146.638 73.1736 146.75 72.9136 146.75 72.5936C146.75 72.2656 146.638 72.0056 146.414 71.8136C146.198 71.6136 145.89 71.5136 145.49 71.5136H144.53V69.5936H145.49C145.802 69.5936 146.07 69.5136 146.294 69.3536C146.518 69.1936 146.63 68.9536 146.63 68.6336C146.63 68.3136 146.518 68.0736 146.294 67.9136C146.07 67.7536 145.802 67.6736 145.49 67.6736C145.178 67.6736 144.91 67.7616 144.686 67.9376C144.462 68.1056 144.35 68.3776 144.35 68.7536ZM152.805 75.5936C152.181 75.5936 151.641 75.4696 151.185 75.2216C150.729 74.9656 150.373 74.6056 150.117 74.1416C149.869 73.6696 149.745 73.1136 149.745 72.4736H151.545C151.545 72.8896 151.665 73.1936 151.905 73.3856C152.145 73.5776 152.445 73.6736 152.805 73.6736C153.165 73.6736 153.465 73.5696 153.705 73.3616C153.945 73.1456 154.065 72.7696 154.065 72.2336C154.065 71.6896 153.945 71.3136 153.705 71.1056C153.465 70.8976 153.165 70.7936 152.805 70.7936C152.565 70.7936 152.341 70.8416 152.133 70.9376C151.933 71.0256 151.777 71.1776 151.665 71.3936H149.865L150.585 65.8736H155.565V67.7936H152.145L151.905 69.3536H152.025C152.177 69.2016 152.357 69.0856 152.565 69.0056C152.773 68.9176 153.013 68.8736 153.285 68.8736C153.789 68.8736 154.233 69.0056 154.617 69.2696C155.009 69.5256 155.313 69.9056 155.529 70.4096C155.753 70.9056 155.865 71.5136 155.865 72.2336C155.865 73.3136 155.589 74.1456 155.037 74.7296C154.485 75.3056 153.741 75.5936 152.805 75.5936ZM156.881 70.6736C156.881 69.6496 157.005 68.7696 157.253 68.0336C157.501 67.2976 157.861 66.7336 158.333 66.3416C158.805 65.9496 159.381 65.7536 160.061 65.7536C160.741 65.7536 161.317 65.9496 161.789 66.3416C162.261 66.7336 162.621 67.2976 162.869 68.0336C163.117 68.7696 163.241 69.6496 163.241 70.6736C163.241 71.6976 163.117 72.5776 162.869 73.3136C162.621 74.0496 162.261 74.6136 161.789 75.0056C161.317 75.3976 160.741 75.5936 160.061 75.5936C159.381 75.5936 158.805 75.3976 158.333 75.0056C157.861 74.6136 157.501 74.0496 157.253 73.3136C157.005 72.5776 156.881 71.6976 156.881 70.6736ZM158.621 70.6736C158.621 71.5936 158.741 72.3136 158.981 72.8336C159.221 73.3536 159.581 73.6136 160.061 73.6136C160.541 73.6136 160.901 73.3536 161.141 72.8336C161.381 72.3136 161.501 71.5936 161.501 70.6736C161.501 69.7536 161.381 69.0336 161.141 68.5136C160.901 67.9936 160.541 67.7336 160.061 67.7336C159.581 67.7336 159.221 67.9936 158.981 68.5136C158.741 69.0336 158.621 69.7536 158.621 70.6736ZM167.382 69.7136V71.6336H164.502V69.7136H167.382ZM168.466 73.6736V71.5136L171.226 65.8736H173.626V71.7536H174.946V73.6736H173.626V75.4736H171.946V73.6736H168.466ZM170.074 71.7536H171.946V68.1536H171.838L170.074 71.7536ZM178.962 75.5936C178.338 75.5936 177.798 75.4696 177.342 75.2216C176.886 74.9656 176.53 74.6056 176.274 74.1416C176.026 73.6696 175.902 73.1136 175.902 72.4736H177.702C177.702 72.8896 177.822 73.1936 178.062 73.3856C178.302 73.5776 178.602 73.6736 178.962 73.6736C179.322 73.6736 179.622 73.5696 179.862 73.3616C180.102 73.1456 180.222 72.7696 180.222 72.2336C180.222 71.6896 180.102 71.3136 179.862 71.1056C179.622 70.8976 179.322 70.7936 178.962 70.7936C178.722 70.7936 178.498 70.8416 178.29 70.9376C178.09 71.0256 177.934 71.1776 177.822 71.3936H176.022L176.742 65.8736H181.722V67.7936H178.302L178.062 69.3536H178.182C178.334 69.2016 178.514 69.0856 178.722 69.0056C178.93 68.9176 179.17 68.8736 179.442 68.8736C179.946 68.8736 180.39 69.0056 180.774 69.2696C181.166 69.5256 181.47 69.9056 181.686 70.4096C181.91 70.9056 182.022 71.5136 182.022 72.2336C182.022 73.3136 181.746 74.1456 181.194 74.7296C180.642 75.3056 179.898 75.5936 178.962 75.5936ZM183.037 70.6736C183.037 69.6496 183.161 68.7696 183.409 68.0336C183.657 67.2976 184.017 66.7336 184.489 66.3416C184.961 65.9496 185.537 65.7536 186.217 65.7536C186.897 65.7536 187.473 65.9496 187.945 66.3416C188.417 66.7336 188.777 67.2976 189.025 68.0336C189.273 68.7696 189.397 69.6496 189.397 70.6736C189.397 71.6976 189.273 72.5776 189.025 73.3136C188.777 74.0496 188.417 74.6136 187.945 75.0056C187.473 75.3976 186.897 75.5936 186.217 75.5936C185.537 75.5936 184.961 75.3976 184.489 75.0056C184.017 74.6136 183.657 74.0496 183.409 73.3136C183.161 72.5776 183.037 71.6976 183.037 70.6736ZM184.777 70.6736C184.777 71.5936 184.897 72.3136 185.137 72.8336C185.377 73.3536 185.737 73.6136 186.217 73.6136C186.697 73.6136 187.057 73.3536 187.297 72.8336C187.537 72.3136 187.657 71.5936 187.657 70.6736C187.657 69.7536 187.537 69.0336 187.297 68.5136C187.057 67.9936 186.697 67.7336 186.217 67.7336C185.737 67.7336 185.377 67.9936 185.137 68.5136C184.897 69.0336 184.777 69.7536 184.777 70.6736Z" fill="black"/>
</svg>
