<svg width="332" height="356" viewBox="0 0 332 356" fill="none" xmlns="http://www.w3.org/2000/svg">
<path d="M227.323 91.1843V84.6491C227.323 80.5296 222.643 78.1607 219.332 80.6075L214.839 83.9297C211.782 86.1894 208.604 87.3375 205.397 87.3375C197.066 87.3375 191.103 79.8075 188.29 75.3165C182.72 66.4281 179.656 54.4539 179.656 41.5965C179.656 36.2406 180.195 30.9885 181.261 25.9833L183.278 16.5H148.719L150.739 25.9833C151.805 30.9859 152.344 36.238 152.344 41.5965C152.344 54.4539 149.277 66.4307 143.71 75.3165C140.897 79.8049 134.936 87.3375 126.603 87.3375C123.396 87.3375 120.217 86.192 117.161 83.9297L112.667 80.6075C109.359 78.1607 104.677 80.527 104.677 84.6491V91.1843C104.677 104.146 111.47 115.515 121.68 121.92C116.328 126.195 112.559 132.369 111.381 139.424V223.371C112.198 228.275 159.653 266.574 142.473 301.245H142.606C140.454 304.99 139.217 309.331 139.217 313.962C139.217 328.066 150.63 339.5 164.709 339.5C178.787 339.5 190.201 328.066 190.201 313.962C190.201 309.331 188.964 304.99 186.812 301.245H186.9C169.08 265.283 217.02 226.685 217.572 223.371V139.424C216.491 132.93 213.208 127.182 208.523 122.977C219.727 116.818 227.323 104.891 227.323 91.1843ZM126.577 103.029H126.603C141.779 103.029 154.807 91.4986 162.01 73.8931C163.482 70.2957 168.517 70.2957 169.99 73.8931C177.193 91.4986 190.221 103.029 205.397 103.029H205.422C206.457 103.029 207.004 104.244 206.307 105.011C202.552 109.138 197.144 111.733 191.144 111.733H140.853C134.853 111.733 129.445 109.138 125.691 105.011C124.993 104.244 125.54 103.026 126.575 103.029H126.577ZM148.598 207.316C144.198 214.21 138.616 219.184 132.38 221.389C129.564 222.384 126.606 220.334 126.606 217.342V145.453C126.606 142.463 129.564 140.411 132.38 141.406C138.616 143.611 144.2 148.585 148.598 155.479C158.647 171.225 158.647 191.565 148.598 207.313V207.316ZM202.35 177.739V217.342C202.35 220.332 199.392 222.384 196.576 221.389C190.341 219.184 184.756 214.207 180.356 207.316C170.306 191.57 170.306 171.23 180.356 155.481C184.756 148.588 190.338 143.614 196.576 141.409C199.392 140.414 202.35 142.463 202.35 145.455V177.739Z" fill="black"/>
</svg>
