<svg width="958" height="620" viewBox="0 0 958 620" fill="none" xmlns="http://www.w3.org/2000/svg">
<g clip-path="url(#clip0_352_138)">
<path d="M806.394 532.282H687.429L694.388 499.701C698.067 482.509 699.918 464.473 699.918 446.063C699.918 401.911 689.35 360.757 670.183 330.237C660.505 314.825 639.979 288.943 611.298 288.943C600.261 288.943 589.319 292.878 578.798 300.654C560.989 313.795 535.823 301.076 535.823 278.965V275.733C535.823 206.987 591.592 151.241 660.365 151.241H833.482C902.255 151.241 958.023 206.987 958.023 275.733V278.965C958.023 301.076 932.857 313.771 915.049 300.654C904.528 292.878 893.585 288.943 882.549 288.943C853.868 288.943 833.341 314.802 823.664 330.237C804.496 360.757 793.928 401.911 793.928 446.063C793.928 464.45 795.779 482.509 799.458 499.701L806.417 532.282H806.394ZM611.275 235.071C675.479 235.071 728.529 294.892 746.9 379.776C765.271 294.892 818.298 235.071 882.525 235.071C885.501 235.071 888.453 235.211 891.429 235.469C878.659 217.176 857.429 205.16 833.482 205.16H660.365C636.394 205.16 615.188 217.152 602.417 235.469C605.37 235.211 608.346 235.071 611.321 235.071H611.275Z" fill="#F2F2F2"/>
<path d="M270.594 532.282H151.629L158.589 499.701C162.268 482.509 164.119 464.473 164.119 446.063C164.119 401.911 153.551 360.757 134.383 330.237C124.706 314.825 104.179 288.943 75.4984 288.943C64.4619 288.943 53.519 292.878 42.998 300.654C25.1896 313.795 0.0234375 301.076 0.0234375 278.965V275.733C0.0234375 206.987 55.792 151.241 124.565 151.241H297.682C366.455 151.241 422.224 206.987 422.224 275.733V278.965C422.224 301.076 397.058 313.771 379.249 300.654C368.728 292.878 357.786 288.943 346.749 288.943C318.068 288.943 297.541 314.802 287.864 330.237C268.696 360.757 258.129 401.911 258.129 446.063C258.129 464.45 259.98 482.509 263.659 499.701L270.618 532.282H270.594ZM75.475 235.071C139.679 235.071 192.729 294.892 211.1 379.776C229.471 294.892 282.498 235.071 346.726 235.071C349.701 235.071 352.654 235.211 355.63 235.469C342.859 217.176 321.63 205.16 297.682 205.16H124.542C100.571 205.16 79.3647 217.152 66.5942 235.469C69.5466 235.211 72.5225 235.071 75.4984 235.071H75.475Z" fill="#F2F2F2"/>
<path d="M565.558 151.264H392.442C323.668 151.264 267.9 207.01 267.9 275.756V278.988C267.9 301.099 293.066 313.795 310.874 300.678C321.395 292.901 332.338 288.966 343.375 288.966C372.056 288.966 392.582 314.825 402.26 330.261C421.427 360.781 431.995 401.934 431.995 446.086C431.995 450.209 431.878 454.331 431.691 458.43C407.368 474.03 391.247 501.27 391.247 532.305C391.247 580.743 430.542 620.023 479 620.023C527.458 620.023 566.754 580.743 566.754 532.305C566.754 501.27 550.632 474.03 526.31 458.43C526.122 454.331 526.005 450.232 526.005 446.086C526.005 401.934 536.573 360.781 555.74 330.261C565.418 314.849 585.944 288.966 614.625 288.966C625.662 288.966 636.605 292.901 647.126 300.678C664.934 313.818 690.1 301.099 690.1 278.988V275.756C690.1 207.01 634.332 151.264 565.558 151.264ZM479 568.329C459.083 568.329 442.938 552.191 442.938 532.282C442.938 512.373 459.083 496.234 479 496.234C498.917 496.234 515.062 512.373 515.062 532.282C515.062 552.191 498.917 568.329 479 568.329ZM614.625 235.071C550.421 235.071 497.371 294.892 479 379.776C460.629 294.892 407.602 235.071 343.375 235.071C340.399 235.071 337.447 235.211 334.471 235.469C347.241 217.176 368.447 205.16 392.418 205.16H565.535C589.506 205.16 610.712 217.152 623.483 235.469C620.53 235.211 617.554 235.071 614.579 235.071H614.625Z" fill="#F2F2F2"/>
<path d="M211.1 0C162.643 0 123.347 39.2799 123.347 87.7182C123.347 136.156 162.643 175.436 211.1 175.436C259.558 175.436 298.854 136.156 298.854 87.7182C298.854 39.2799 259.558 0 211.1 0ZM211.1 123.766C191.183 123.766 175.038 107.628 175.038 87.7182C175.038 67.8088 191.183 51.6706 211.1 51.6706C231.018 51.6706 247.162 67.8088 247.162 87.7182C247.162 107.628 231.018 123.766 211.1 123.766Z" fill="#F2F2F2"/>
<path d="M746.9 2.01416C698.442 2.01416 659.146 41.2941 659.146 89.7323C659.146 138.171 698.442 177.451 746.9 177.451C795.358 177.451 834.653 138.171 834.653 89.7323C834.653 41.2941 795.358 2.01416 746.9 2.01416ZM746.9 125.78C726.983 125.78 710.838 109.642 710.838 89.7323C710.838 69.823 726.983 53.6847 746.9 53.6847C766.817 53.6847 782.962 69.823 782.962 89.7323C782.962 109.642 766.817 125.78 746.9 125.78Z" fill="#F2F2F2"/>
</g>
<defs>
<clipPath id="clip0_352_138">
<rect width="958" height="620" fill="white"/>
</clipPath>
</defs>
</svg>
