<svg width="202" height="442" viewBox="0 0 202 442" fill="none" xmlns="http://www.w3.org/2000/svg">
<g clip-path="url(#clip0_374_552)">
<path d="M101 81.8611C120.974 81.8611 137.165 65.7012 137.165 45.767C137.165 25.8327 120.974 9.67285 101 9.67285C81.0263 9.67285 64.8345 25.8327 64.8345 45.767C64.8345 65.7012 81.0263 81.8611 101 81.8611Z" fill="black"/>
<path d="M147.479 410.486C141.25 403.499 124.428 381.399 124.998 347.425C125.423 322.193 130.946 308.816 136.277 295.891C141.173 284.027 146.233 271.767 145.876 253.099C145.664 242.266 143.414 233.177 139.174 225.9C132.617 213.12 118.083 204.225 101.193 204.225C84.303 204.225 68.4462 213.949 62.3623 227.683C58.7506 234.652 56.8288 243.143 56.6357 253.108C56.2784 271.777 61.3386 284.036 66.2347 295.901C71.5751 308.835 77.0892 322.203 77.5141 347.435C78.0839 381.409 61.2517 403.508 55.0326 410.496H24.3619V432.673H59.6197C64.4772 432.673 67.3549 429.762 69.4505 427.632C74.646 422.36 100.546 393.668 99.7542 347.059C99.2617 317.625 92.3473 300.893 86.7945 287.448C84.8245 282.678 83.0379 278.331 81.6473 273.811C87.4802 276.557 94.1338 278.119 101.193 278.119C108.252 278.119 115.022 276.538 120.884 273.743C119.503 278.283 117.697 282.649 115.717 287.439C110.164 300.884 103.26 317.615 102.758 347.049C101.975 393.658 127.866 422.351 133.071 427.623C135.166 429.753 138.035 432.663 142.902 432.663H178.159V410.486H147.47H147.479Z" fill="black"/>
<path d="M125.722 233.447H76.6933L79.5614 220.041C81.0775 212.966 81.8404 205.545 81.8404 197.97C81.8404 179.802 77.4851 162.868 69.5857 150.31C65.5974 143.968 57.1378 133.318 45.3176 133.318C40.7692 133.318 36.2594 134.937 31.9234 138.137C24.584 143.544 14.2124 138.311 14.2124 129.212V127.882C14.2124 99.5951 37.1961 76.6567 65.5394 76.6567H136.885C165.229 76.6567 188.212 99.5951 188.212 127.882V129.212C188.212 138.311 177.841 143.534 170.501 138.137C166.165 134.937 161.656 133.318 157.107 133.318C145.287 133.318 136.827 143.959 132.839 150.31C124.94 162.868 120.584 179.802 120.584 197.97C120.584 205.535 121.347 212.966 122.863 220.041L125.732 233.447H125.722ZM45.308 111.151C71.7682 111.151 93.6316 135.766 101.203 170.694C108.774 135.766 130.628 111.151 157.098 111.151C158.324 111.151 159.541 111.209 160.767 111.315C155.504 103.788 146.755 98.8433 136.885 98.8433H65.5298C55.6506 98.8433 46.911 103.778 41.648 111.315C42.8648 111.209 44.0912 111.151 45.3176 111.151H45.308Z" fill="black"/>
</g>
<defs>
<clipPath id="clip0_374_552">
<rect width="174" height="423" fill="white" transform="translate(14.2028 9.67285)"/>
</clipPath>
</defs>
</svg>
