<svg width="202" height="442" viewBox="0 0 202 442" fill="none" xmlns="http://www.w3.org/2000/svg">
<g clip-path="url(#clip0_374_548)">
<path d="M135.72 151.903H66.7153C39.3022 151.903 17.0728 129.673 17.0728 102.26V93.3122C17.0728 87.6708 23.4987 84.4298 28.038 87.7735L34.2025 92.3221C38.3962 95.4231 42.758 96.9922 47.1572 96.9922C58.5895 96.9922 66.7714 86.6807 70.6288 80.5256C78.269 68.3555 82.4814 51.9449 82.4814 34.3389C82.4814 26.9976 81.7435 19.8057 80.2771 12.9501L77.5031 -0.0419922H124.923L122.149 12.9501C120.682 19.8057 119.944 26.9976 119.944 34.3389C119.944 51.9449 124.157 68.3555 131.797 80.5256C135.655 86.6714 143.836 96.9922 155.269 96.9922C159.668 96.9922 164.03 95.4231 168.223 92.3221L174.388 87.7735C178.927 84.4204 185.353 87.6614 185.353 93.3122V102.26C185.353 129.673 163.124 151.903 135.711 151.903H135.72ZM47.1198 118.484C45.7001 118.484 44.9529 120.146 45.9056 121.202C51.0613 126.852 58.4774 130.411 66.7153 130.411H135.72C143.958 130.411 151.374 126.852 156.53 121.202C157.482 120.156 156.735 118.484 155.315 118.484C155.306 118.484 155.287 118.484 155.278 118.484C134.45 118.484 116.582 102.69 106.691 78.5735C104.673 73.642 97.7618 73.642 95.7443 78.5735C85.8625 102.69 67.9856 118.484 47.1572 118.484C47.1478 118.484 47.1292 118.484 47.1198 118.484Z" fill="black"/>
<path d="M171.987 168.341C168.914 149.932 152.915 135.894 133.637 135.894H64.623C45.345 135.894 29.3455 149.932 26.2726 168.341V283.327C27.3934 290.042 92.5125 342.506 68.9381 389.991H69.1249C66.1734 395.118 64.4735 401.068 64.4735 407.41C64.4735 426.725 80.1369 442.389 99.4522 442.389C118.767 442.389 134.431 426.725 134.431 407.41C134.431 401.068 132.731 395.118 129.779 389.991H129.901C105.449 340.731 171.231 287.866 171.987 283.327M47.157 220.814V176.598C47.157 172.497 51.22 169.695 55.0774 171.059C63.6329 174.085 71.2918 180.894 77.3348 190.337C91.1208 211.903 91.1208 239.765 77.3348 261.331C71.3011 270.774 63.6329 277.583 55.0774 280.609C51.2106 281.973 47.157 279.161 47.157 275.07V220.823V220.814ZM151.094 230.845V275.061C151.094 279.161 147.031 281.963 143.173 280.6C134.618 277.573 126.959 270.764 120.916 261.322C107.13 239.755 107.13 211.894 120.916 190.328C126.949 180.885 134.618 174.076 143.173 171.05C147.04 169.686 151.094 172.497 151.094 176.588V220.804V230.826V230.845Z" fill="black"/>
</g>
<defs>
<clipPath id="clip0_374_548">
<rect width="202" height="442" fill="white"/>
</clipPath>
</defs>
</svg>
