<svg width="148" height="96" viewBox="0 0 148 96" fill="none" xmlns="http://www.w3.org/2000/svg">
<g clip-path="url(#clip0_352_98)">
<path d="M124.579 82.4179H106.2L107.275 77.3731C107.843 74.711 108.129 71.9185 108.129 69.0678C108.129 62.2314 106.497 55.8592 103.536 51.1336C102.04 48.7472 98.8693 44.7396 94.4385 44.7396C92.7334 44.7396 91.0429 45.3489 89.4175 46.553C86.6663 48.5876 82.7784 46.6183 82.7784 43.1946V42.6941C82.7784 32.0496 91.394 23.418 102.019 23.418H128.763C139.388 23.418 148.004 32.0496 148.004 42.6941V43.1946C148.004 46.6183 144.116 48.584 141.364 46.553C139.739 45.3489 138.049 44.7396 136.344 44.7396C131.913 44.7396 128.742 48.7435 127.247 51.1336C124.285 55.8592 122.653 62.2314 122.653 69.0678C122.653 71.9148 122.939 74.711 123.507 77.3731L124.582 82.4179H124.579ZM94.4348 36.3981C104.354 36.3981 112.549 45.6608 115.387 58.8041C118.225 45.6608 126.418 36.3981 136.34 36.3981C136.8 36.3981 137.256 36.4199 137.716 36.4598C135.743 33.6273 132.463 31.7667 128.763 31.7667H102.019C98.3155 31.7667 95.0394 33.6236 93.0665 36.4598C93.5226 36.4199 93.9823 36.3981 94.4421 36.3981H94.4348Z" fill="black"/>
<path d="M41.8038 82.4179H23.425L24.5002 77.3731C25.0685 74.711 25.3545 71.9185 25.3545 69.0678C25.3545 62.2314 23.7219 55.8592 20.7607 51.1336C19.2657 48.7472 16.0946 44.7396 11.6637 44.7396C9.95866 44.7396 8.26812 45.3489 6.64274 46.553C3.89154 48.5876 0.00366211 46.6183 0.00366211 43.1946V42.6941C0.00366211 32.0496 8.61926 23.418 19.244 23.418H45.9885C56.6132 23.418 65.2288 32.0496 65.2288 42.6941V43.1946C65.2288 46.6183 61.3409 48.584 58.5897 46.553C56.9643 45.3489 55.2738 44.7396 53.5688 44.7396C49.1379 44.7396 45.9668 48.7435 44.4717 51.1336C41.5106 55.8592 39.8779 62.2314 39.8779 69.0678C39.8779 71.9148 40.1639 74.711 40.7323 77.3731L41.8074 82.4179H41.8038ZM11.6601 36.3981C21.5789 36.3981 29.7745 45.6608 32.6126 58.8041C35.4507 45.6608 43.6427 36.3981 53.5652 36.3981C54.0249 36.3981 54.481 36.4199 54.9408 36.4598C52.9679 33.6273 49.6881 31.7667 45.9885 31.7667H19.2403C15.5371 31.7667 12.261 33.6236 10.2881 36.4598C10.7442 36.4199 11.2039 36.3981 11.6637 36.3981H11.6601Z" fill="black"/>
<path d="M87.3723 23.4214H60.6277C50.003 23.4214 41.3875 32.053 41.3875 42.6975V43.198C41.3875 46.6217 45.2753 48.5874 48.0265 46.5564C49.6519 45.3523 51.3424 44.743 53.0475 44.743C57.4783 44.743 60.6495 48.747 62.1445 51.137C65.1057 55.8626 66.7383 62.2348 66.7383 69.0713C66.7383 69.7096 66.7202 70.3479 66.6912 70.9825C62.9337 73.398 60.4431 77.6159 60.4431 82.4213C60.4431 89.9214 66.5139 96.0035 74 96.0035C81.4862 96.0035 87.5569 89.9214 87.5569 82.4213C87.5569 77.6159 85.0663 73.398 81.3088 70.9825C81.2798 70.3479 81.2617 69.7132 81.2617 69.0713C81.2617 62.2348 82.8943 55.8626 85.8555 51.137C87.3506 48.7506 90.5217 44.743 94.9526 44.743C96.6576 44.743 98.3481 45.3523 99.9735 46.5564C102.725 48.591 106.613 46.6217 106.613 43.198V42.6975C106.613 32.053 97.997 23.4214 87.3723 23.4214ZM74 87.9992C70.923 87.9992 68.4288 85.5004 68.4288 82.4177C68.4288 79.3349 70.923 76.8361 74 76.8361C77.077 76.8361 79.5712 79.3349 79.5712 82.4177C79.5712 85.5004 77.077 87.9992 74 87.9992ZM94.9526 36.3979C85.0338 36.3979 76.8381 45.6606 74 58.8039C71.1619 45.6606 62.9699 36.3979 53.0475 36.3979C52.5877 36.3979 52.1316 36.4196 51.6719 36.4595C53.6448 33.6271 56.9209 31.7665 60.6241 31.7665H87.3687C91.0719 31.7665 94.348 33.6234 96.3209 36.4595C95.8648 36.4196 95.4051 36.3979 94.9453 36.3979H94.9526Z" fill="black"/>
<path d="M32.6126 0C25.1264 0 19.0557 6.08205 19.0557 13.5822C19.0557 21.0823 25.1264 27.1643 32.6126 27.1643C40.0987 27.1643 46.1695 21.0823 46.1695 13.5822C46.1695 6.08205 40.0987 0 32.6126 0ZM32.6126 19.1637C29.5356 19.1637 27.0414 16.6649 27.0414 13.5822C27.0414 10.4994 29.5356 8.0006 32.6126 8.0006C35.6896 8.0006 38.1837 10.4994 38.1837 13.5822C38.1837 16.6649 35.6896 19.1637 32.6126 19.1637Z" fill="black"/>
<path d="M115.387 0.312012C107.901 0.312012 101.831 6.39407 101.831 13.8942C101.831 21.3943 107.901 27.4763 115.387 27.4763C122.874 27.4763 128.944 21.3943 128.944 13.8942C128.944 6.39407 122.874 0.312012 115.387 0.312012ZM115.387 19.4757C112.31 19.4757 109.816 16.9769 109.816 13.8942C109.816 10.8114 112.31 8.31262 115.387 8.31262C118.464 8.31262 120.959 10.8114 120.959 13.8942C120.959 16.9769 118.464 19.4757 115.387 19.4757Z" fill="black"/>
</g>
<defs>
<clipPath id="clip0_352_98">
<rect width="148" height="96" fill="white"/>
</clipPath>
</defs>
</svg>
