<svg width="454" height="294" viewBox="0 0 454 294" fill="none" xmlns="http://www.w3.org/2000/svg">
<g clip-path="url(#clip0_351_77)">
<rect width="454" height="294" fill="#33FF00"/>
<path d="M382.153 252.405H325.775L329.073 236.955C330.817 228.802 331.694 220.25 331.694 211.52C331.694 190.583 326.686 171.069 317.602 156.596C313.016 149.288 303.288 137.015 289.696 137.015C284.466 137.015 279.28 138.881 274.294 142.568C265.855 148.799 253.929 142.768 253.929 132.283V130.751C253.929 98.1517 280.358 71.7173 312.949 71.7173H394.99C427.582 71.7173 454.011 98.1517 454.011 130.751V132.283C454.011 142.768 442.085 148.788 433.645 142.568C428.659 138.881 423.473 137.015 418.243 137.015C404.651 137.015 394.924 149.277 390.337 156.596C381.254 171.069 376.246 190.583 376.246 211.52C376.246 220.239 377.123 228.802 378.866 236.955L382.164 252.405H382.153ZM289.685 111.469C320.112 111.469 345.253 139.836 353.959 180.087C362.665 139.836 387.794 111.469 418.232 111.469C419.642 111.469 421.042 111.536 422.452 111.658C416.4 102.983 406.339 97.2854 394.99 97.2854H312.949C301.589 97.2854 291.54 102.972 285.488 111.658C286.887 111.536 288.297 111.469 289.708 111.469H289.685Z" fill="black"/>
<path d="M128.236 252.405H71.8578L75.1559 236.955C76.8993 228.802 77.7765 220.25 77.7765 211.52C77.7765 190.583 72.7684 171.069 63.6848 156.596C59.0986 149.288 49.371 137.015 35.779 137.015C30.5487 137.015 25.3629 138.881 20.3769 142.568C11.9374 148.799 0.0111084 142.768 0.0111084 132.283V130.751C0.0111084 98.1517 26.44 71.7173 59.032 71.7173H141.073C173.665 71.7173 200.094 98.1517 200.094 130.751V132.283C200.094 142.768 188.167 148.788 179.728 142.568C174.742 138.881 169.556 137.015 164.326 137.015C150.734 137.015 141.006 149.277 136.42 156.596C127.336 171.069 122.328 190.583 122.328 211.52C122.328 220.239 123.205 228.802 124.949 236.955L128.247 252.405H128.236ZM35.7679 111.469C66.1945 111.469 91.3352 139.836 100.041 180.087C108.747 139.836 133.877 111.469 164.315 111.469C165.725 111.469 167.124 111.536 168.534 111.658C162.482 102.983 152.422 97.2854 141.073 97.2854H59.0209C47.6609 97.2854 37.6112 102.972 31.5592 111.658C32.9584 111.536 34.3687 111.469 35.779 111.469H35.7679Z" fill="black"/>
<path d="M268.02 71.7285H185.98C153.388 71.7285 126.959 98.163 126.959 130.762V132.295C126.959 142.779 138.885 148.799 147.325 142.579C152.311 138.892 157.496 137.026 162.727 137.026C176.319 137.026 186.046 149.288 190.632 156.608C199.716 171.08 204.724 190.595 204.724 211.531C204.724 213.486 204.669 215.441 204.58 217.385C193.053 224.782 185.413 237.699 185.413 252.416C185.413 275.385 204.036 294.011 227 294.011C249.964 294.011 268.587 275.385 268.587 252.416C268.587 237.699 260.947 224.782 249.42 217.385C249.331 215.441 249.276 213.497 249.276 211.531C249.276 190.595 254.284 171.08 263.368 156.608C267.954 149.299 277.681 137.026 291.273 137.026C296.504 137.026 301.689 138.892 306.675 142.579C315.115 148.81 327.041 142.779 327.041 132.295V130.762C327.041 98.163 300.612 71.7285 268.02 71.7285ZM227 269.498C217.561 269.498 209.91 261.846 209.91 252.405C209.91 242.964 217.561 235.311 227 235.311C236.439 235.311 244.09 242.964 244.09 252.405C244.09 261.846 236.439 269.498 227 269.498ZM291.273 111.469C260.847 111.469 235.706 139.836 227 180.088C218.294 139.836 193.164 111.469 162.727 111.469C161.316 111.469 159.917 111.536 158.507 111.658C164.559 102.983 174.609 97.2855 185.969 97.2855H268.009C279.369 97.2855 289.419 102.972 295.471 111.658C294.072 111.536 292.661 111.469 291.251 111.469H291.273Z" fill="black"/>
<path d="M100.041 0C77.077 0 58.4546 18.6263 58.4546 41.5954C58.4546 64.5645 77.077 83.1908 100.041 83.1908C123.006 83.1908 141.628 64.5645 141.628 41.5954C141.628 18.6263 123.006 0 100.041 0ZM100.041 58.6889C90.6024 58.6889 82.9513 51.0363 82.9513 41.5954C82.9513 32.1545 90.6024 24.5018 100.041 24.5018C109.48 24.5018 117.131 32.1545 117.131 41.5954C117.131 51.0363 109.48 58.6889 100.041 58.6889Z" fill="black"/>
<path d="M353.959 0.955078C330.994 0.955078 312.372 19.5814 312.372 42.5505C312.372 65.5196 330.994 84.1459 353.959 84.1459C376.923 84.1459 395.545 65.5196 395.545 42.5505C395.545 19.5814 376.923 0.955078 353.959 0.955078ZM353.959 59.644C344.52 59.644 336.869 51.9913 336.869 42.5505C336.869 33.1096 344.52 25.4569 353.959 25.4569C363.398 25.4569 371.049 33.1096 371.049 42.5505C371.049 51.9913 363.398 59.644 353.959 59.644Z" fill="black"/>
</g>
<defs>
<clipPath id="clip0_351_77">
<rect width="454" height="294" fill="white"/>
</clipPath>
</defs>
</svg>
