<svg width="202" height="442" viewBox="0 0 202 442" fill="none" xmlns="http://www.w3.org/2000/svg">
<path d="M100.981 424.083C120.933 424.083 137.108 407.908 137.108 387.956C137.108 368.003 120.933 351.829 100.981 351.829C81.0282 351.829 64.8536 368.003 64.8536 387.956C64.8536 407.908 81.0282 424.083 100.981 424.083Z" fill="black"/>
<path d="M135.526 289.771C134.243 273.237 142.365 265.211 153.604 254.098C166.029 241.818 181.483 226.528 179.611 197.356C178.926 186.725 176.418 177.792 172.145 170.644C171.672 169.747 171.161 168.869 170.62 168.02C153.575 136.581 107.048 123.655 132.497 72.3825H132.304C135.603 66.6427 137.387 59.919 137.069 52.7515C136.268 34.5963 121.798 19.6728 103.662 18.3609C82.4975 16.8271 64.8537 33.5545 64.8537 54.3914C64.8537 60.9415 66.6094 67.0865 69.6577 72.3825H69.5323C94.7875 123.259 49.1777 136.379 31.8136 167.297C31.3506 168.001 30.9068 168.724 30.4824 169.458C25.8037 176.779 23.0737 186.06 22.3599 197.221C20.4787 226.392 35.9424 241.673 48.3674 253.963C59.6059 265.076 67.7284 273.102 66.4454 289.636C64.7186 311.901 22.466 324.914 21.6556 325.156L27.8295 346.485C28.2347 346.369 49.361 341.121 61.6413 333.49C77.9057 323.381 87.2244 308.814 88.5846 291.363C90.6683 264.565 75.8702 249.93 63.9855 238.181C52.4287 226.749 43.3029 217.73 44.528 198.658C44.557 198.253 44.6148 197.838 44.7017 197.404C46.4477 188.809 56.654 184.902 63.8986 189.851C79.3527 200.404 90.5815 223.605 92.4722 251.281C92.7713 255.719 96.2731 259.404 100.72 259.548C105.351 259.703 109.219 256.143 109.518 251.561C111.332 223.933 122.464 200.723 137.822 190.044C145.153 184.95 155.543 188.77 157.298 197.52C157.385 197.954 157.443 198.378 157.472 198.784C158.697 217.855 149.571 226.884 138.014 238.306C126.13 250.056 111.332 264.69 113.415 291.489C114.766 308.949 124.085 323.516 140.359 333.616C152.639 341.246 173.765 346.494 174.17 346.61L180.344 325.281C179.534 325.05 137.281 312.026 135.555 289.762L135.526 289.771ZM100.981 72.4404C90.7358 72.4404 82.4397 64.1346 82.4397 53.8994C82.4397 43.6642 90.7455 35.3584 100.981 35.3584C111.216 35.3584 119.522 43.6642 119.522 53.8994C119.522 64.1346 111.216 72.4404 100.981 72.4404Z" fill="black"/>
</svg>
