<svg width="82" height="81" viewBox="0 0 82 81" fill="none" xmlns="http://www.w3.org/2000/svg">
<g clip-path="url(#clip0_374_564)">
<path d="M27.2202 34.1744L17.3241 4.95944L31.8466 0L41.7428 29.215C43.1084 33.2402 40.961 37.6182 36.953 38.9897C32.9451 40.3613 28.5859 38.2046 27.2202 34.1794V34.1744Z" fill="black"/>
<path d="M46.2009 38.9897C42.193 37.6182 40.0455 33.2451 41.4112 29.215L51.3073 0L65.8299 4.95944L55.9338 34.1744C54.5681 38.1996 50.2138 40.3563 46.2009 38.9848V38.9897Z" fill="black"/>
<path d="M51.3073 82.5214L41.4112 53.3064C40.0455 49.2812 42.193 44.9032 46.2009 43.5316C50.2089 42.1601 54.5681 44.3168 55.9338 48.342L65.8299 77.557L51.3073 82.5164V82.5214Z" fill="black"/>
<path d="M31.8466 82.5213L17.3241 77.5618L27.2202 48.3469C28.5859 44.3217 32.9402 42.165 36.953 43.5365C40.961 44.9081 43.1084 49.2811 41.7428 53.3113L31.8466 82.5263V82.5213Z" fill="black"/>
</g>
<defs>
<clipPath id="clip0_374_564">
<rect width="82" height="81" fill="white"/>
</clipPath>
</defs>
</svg>
