<svg width="82" height="81" viewBox="0 0 82 81" fill="none" xmlns="http://www.w3.org/2000/svg">
<g clip-path="url(#clip0_374_563)">
<path d="M49.6387 81.0707H34.2997V50.2108C34.2997 45.957 37.7336 42.5083 41.9692 42.5083C46.2047 42.5083 49.6387 45.957 49.6387 50.2108V81.0707Z" fill="black"/>
<path d="M26.0662 34.1744L16.17 4.95944L30.6926 0L40.5887 29.215C41.9544 33.2402 39.8069 37.6182 35.799 38.9897C31.7911 40.3613 27.4318 38.2046 26.0662 34.1794V34.1744Z" fill="black"/>
<path d="M45.0468 38.9897C41.0388 37.6182 38.8914 33.2451 40.257 29.215L50.1531 0L64.6757 4.95944L54.7796 34.1744C53.4139 38.1996 49.0596 40.3563 45.0468 38.9848V38.9897Z" fill="black"/>
</g>
<defs>
<clipPath id="clip0_374_563">
<rect width="82" height="81" fill="white"/>
</clipPath>
</defs>
</svg>
